<svg width="292" height="110" viewBox="0 0 292 110" fill="none" xmlns="http://www.w3.org/2000/svg">
<path d="M229.823 74.2589C237.744 74.2521 245.519 74.2315 253.293 74.2453C255.18 74.2487 257.056 73.8497 258.949 74.1395C261.444 74.5215 262.351 75.8645 262.187 78.9844C262.082 80.9696 260.744 82.1993 258.497 82.2306C254.988 82.2795 251.478 82.263 247.969 82.2633C241.603 82.2638 235.235 82.3307 228.87 82.2258C224.66 82.1565 221.269 80.4409 219.104 76.6461C218.184 75.0327 218.212 73.2585 218.211 71.4008C217.317 71.5225 216.971 72.1176 216.524 72.5278C212.641 76.0863 208.522 79.2976 203.525 81.1612C200.489 82.2935 197.349 82.6628 194.151 81.9616C190.509 81.1633 188.004 78.9667 186.544 75.5648C186.188 74.7351 185.924 73.8661 185.626 73.0378C184.915 72.9437 184.599 73.4568 184.192 73.7713C180.458 76.6539 176.549 79.2598 172.062 80.814C165.778 82.9907 159.754 83.2492 154.786 77.916C154.132 78.0565 154.105 78.5409 153.985 78.9245C151.285 87.5696 148.379 96.1587 145.986 104.888C144.665 109.708 141.548 109.802 138.277 109.176C136.419 108.821 136.006 107.929 136.592 106.104C139.81 96.0947 143.036 86.0881 146.259 76.0807C148.094 70.3847 149.938 64.6917 151.75 58.9887C151.933 58.4146 152.347 57.8187 151.875 56.9578C149.454 58.6596 146.666 59.3839 145.478 62.8184C143.101 69.6966 138.768 75.34 132.592 79.3896C129.305 81.5449 125.719 82.4091 121.802 81.5806C118.735 80.9316 116.539 79.2066 115.258 76.337C115.02 75.8037 114.808 75.2588 114.577 74.7014C113.666 74.9465 113.298 75.6472 112.805 76.1873C110.227 79.0087 107.203 81.0448 103.37 81.7615C97.4041 82.877 93.4025 78.8201 94.6353 72.8969C95.9244 66.7032 98.7503 61.1081 101.367 55.4291C102.09 53.8609 102.785 52.2802 103.486 50.7021C103.749 50.1091 104.079 49.4927 103.57 48.882C103.019 48.2214 102.283 48.197 101.498 48.3564C99.1337 48.8368 97.2677 50.229 95.4951 51.7276C88.7108 57.4636 84.1477 64.8085 80.4551 72.7581C79.5703 74.6631 78.8592 76.6481 78.0399 78.5843C76.8483 81.4002 71.4351 82.4165 69.2766 80.2199C68.1541 79.0775 68.4562 77.7331 68.9207 76.4303C71.5474 69.0643 74.1486 61.6887 76.8405 54.3465C80.2589 45.0225 83.8726 35.7735 88.3494 26.8945C91.5888 20.4696 95.1822 14.2601 100.189 9.00048C102.82 6.23586 105.679 3.81852 109.563 2.96682C116.131 1.52653 118.222 5.71683 117.553 10.7975C116.704 17.2555 113.608 22.7023 109.858 27.8589C105.754 33.5014 100.963 38.5649 96.4411 43.8554C96.1678 44.1751 95.8901 44.491 95.714 44.915C97.4485 43.6894 99.1511 42.4152 100.926 41.2506C103.156 39.7867 105.529 38.6433 108.285 38.6235C112.98 38.5898 115.301 41.4557 114.337 46.1171C113.418 50.5564 111.082 54.4354 109.368 58.5593C107.65 62.6912 105.555 66.662 104.092 70.9036C103.709 72.0114 103.381 73.1873 104.324 74.0921C105.334 75.0602 106.621 74.7025 107.655 74.1184C111.103 72.1705 113.454 69.2636 114.229 65.3598C116.386 54.4848 121.684 45.7727 131.451 40.169C134.304 38.5326 137.462 37.9003 140.81 38.6569C144.915 39.5844 147.968 43.6418 148.14 48.5951C148.17 49.458 148.139 50.3228 148.158 51.1864C148.17 51.7679 148.048 52.4474 148.703 52.7649C149.273 53.0416 149.741 52.6091 150.179 52.3222C154.228 49.6684 157.096 46.1662 157.961 41.2753C158.209 39.8753 158.828 38.7411 160.273 38.4864C162.007 38.1808 163.831 37.8362 165.397 39.0799C165.961 39.5283 166.175 40.218 166.283 40.936C166.547 42.7039 166.729 42.7912 168.238 41.7365C169.796 40.6476 171.422 39.6852 173.223 39.0803C176.211 38.0768 179.222 37.7364 182.19 39.1637C185.912 40.9532 187.455 44.171 187.648 48.0616C187.954 54.2447 185.321 59.472 181.932 64.391C179.808 67.4734 177.229 70.1529 174.445 72.6428C174.218 72.8459 173.881 73.0086 173.988 73.5166C174.767 73.6996 175.408 73.2412 176.045 72.9261C179.313 71.3087 182.21 69.1644 184.832 66.6384C185.438 66.0551 185.694 65.3706 185.882 64.5344C187.993 55.177 191.684 46.6783 199.476 40.5531C201.72 38.7893 204.318 37.7111 207.23 37.6579C213.516 37.5429 217.048 41.8858 216.075 48.0993C214.85 55.9265 209.749 60.4473 203.204 63.8138C200.802 65.049 198.237 65.9247 195.56 66.3526C194.557 66.5127 194.209 67.0047 194.091 67.9358C193.46 72.9259 196.957 76.0048 201.764 74.5697C206.213 73.2413 209.771 70.4114 213.243 67.4704C213.284 67.4355 213.321 67.3956 213.36 67.3587C220.472 60.692 220.464 60.69 222.989 49.6899C225.013 40.872 227.096 32.0673 229.079 23.2404C229.713 20.4225 230.396 17.687 232.453 15.4986C235.049 12.7368 238.3 11.5281 242.002 11.4224C246.264 11.3009 250.529 11.5395 254.792 11.2788C255.918 11.21 256.493 10.7719 256.885 9.69818C259.521 2.48223 269.744 1.46926 273.459 6.19142C273.911 6.76643 274.496 6.88324 275.179 6.86716C278.038 6.79989 280.903 6.84388 283.756 6.67686C286.317 6.52687 288.284 7.13531 289.38 9.70613C289.948 11.0364 290.841 12.2247 291.537 13.5039C292.364 15.0216 292.052 16.6391 290.845 17.3863C289.445 18.2521 286.964 17.9903 286.373 16.5953C285.357 14.1944 283.681 13.6405 281.371 14.0796C281.268 14.0994 281.156 14.0743 281.048 14.078C279.754 14.1223 278.364 13.8865 277.192 14.2869C275.826 14.7535 276.556 16.5081 275.899 17.5267C275.697 17.8407 275.658 18.2848 275.412 18.5418C273.82 20.201 274.571 21.5113 275.859 22.9241C277.275 24.4765 278.597 26.1285 279.822 27.836C280.727 29.0981 281.675 29.5181 283.098 28.764C283.865 28.3573 284.715 28.2026 285.604 28.2331C286.566 28.2662 287.324 28.633 287.631 29.5475C287.93 30.4406 287.919 31.3554 287.188 32.1175C286.729 32.5969 286.188 32.9326 285.566 33.149C283.937 33.7154 282.309 34.2872 280.678 34.8491C277.688 35.8792 275.662 35.2436 273.761 32.6567C271.907 30.1345 270.04 27.6212 268.246 25.0565C267.682 24.2502 267.137 24.0386 266.121 24.0806C263.021 24.2086 260.216 23.3735 258.347 20.6579C257.851 19.9373 257.311 19.6812 256.481 19.6866C251.892 19.7166 247.302 19.6778 242.713 19.7329C239.773 19.7682 237.926 21.4336 237.245 24.4895C236.461 28.0121 235.689 31.5376 234.887 35.0562C234.461 36.9213 234.614 37.1323 236.51 37.1233C245.742 37.0798 254.974 37.0413 264.206 37.0021C264.583 37.0005 264.964 36.9818 265.339 37.0173C267.129 37.1867 268.275 38.406 268.334 40.2169C268.406 42.4055 267.649 44.4598 267.249 46.5695C266.799 48.9477 266.196 51.2964 265.701 53.6668C264.419 59.8107 260.166 63.3467 253.804 63.398C246.03 63.4606 238.254 63.4935 230.481 63.4215C228.803 63.406 228.047 63.9296 227.806 65.5733C227.573 67.1664 227.115 68.7267 226.756 70.3015C226.23 72.6104 227.253 73.9959 229.823 74.2589ZM160.712 59.6255C159.959 61.2976 159.305 63.005 158.772 64.7615C158.13 66.8741 157.396 68.9666 157.552 71.2262C157.763 74.2826 160.18 75.6787 162.89 74.29C163.896 73.7744 164.859 73.1878 165.733 72.4473C170.779 68.1744 174.211 62.7292 177.07 56.8732C177.97 55.0287 178.612 53.0777 178.935 51.0431C179.253 49.0487 178.79 47.25 177.202 45.9341C175.639 44.6394 173.904 44.8821 172.176 45.6664C170.887 46.2514 169.754 47.0576 168.674 47.9646C164.995 51.0523 162.273 54.7911 160.712 59.6255ZM251.457 55.1161C255.288 55.0442 256.65 53.9149 257.437 50.1648C257.68 49.006 257.864 47.8285 258.203 46.698C258.522 45.637 258.133 45.3071 257.143 45.3088C249.317 45.322 241.49 45.3246 233.664 45.338C232.751 45.3395 232.2 45.6828 232.015 46.714C231.626 48.8844 231.081 51.0264 230.617 53.1839C230.228 54.9972 230.336 55.1343 232.207 55.1344C238.522 55.1349 244.838 55.1228 251.457 55.1161ZM129.771 74.1019C134.187 71.2189 136.776 67.0406 138.651 61.968C133.039 62.1054 129.422 59.8249 128.042 54.4398C127.64 54.7654 127.421 54.8632 127.325 55.0312C124.725 59.6154 122.61 64.3701 122.565 69.7679C122.525 74.4485 125.296 76.1864 129.771 74.1019ZM95.5719 38.2642C101.082 32.0339 106.451 25.6999 110.033 18.0899C111.023 15.9869 111.808 13.8105 111.97 11.4615C112.028 10.6169 111.895 9.81084 111.075 9.35898C110.269 8.91451 109.581 9.43927 108.993 9.84988C107.561 10.8489 106.488 12.217 105.509 13.6427C99.7075 22.0897 95.6023 31.4187 91.4853 40.7383C91.2811 41.2005 90.7926 41.7679 91.4595 42.4306C92.9184 41.2129 94.1737 39.8295 95.5719 38.2642ZM196.07 59.0317C195.923 59.6376 195.516 60.2393 196.032 60.8652C196.794 61.1341 197.407 60.7207 198.023 60.4185C201.46 58.7311 204.413 56.4041 206.895 53.5008C208.438 51.6968 209.269 49.5285 209.731 47.2273C209.923 46.2698 209.995 45.2598 209.047 44.571C208.134 43.9071 207.161 43.9042 206.13 44.3122C205.101 44.7199 204.258 45.3665 203.502 46.1539C200.028 49.7725 197.923 54.1878 196.07 59.0317ZM137.754 44.7059C135.71 45.6168 134.653 47.3926 134.02 49.3646C133.06 52.3547 134.779 55.6792 137.651 56.5583C138.903 56.9415 140.439 57.1745 141.039 55.6572C142.123 52.9174 142.598 50.0313 141.66 47.1199C141.056 45.247 140.007 44.6028 137.754 44.7059ZM262.956 14.6373C263.172 15.0699 263.325 15.5508 263.615 15.9266C264.828 17.5005 266.999 17.6656 268.479 16.3345C269.992 14.9745 270.103 12.8671 268.678 11.4716C267.646 10.4618 266.454 9.97884 265.002 10.621C263.339 11.3565 262.716 12.6487 262.956 14.6373Z" fill="#FB0408"/>
<path d="M52.0642 92.7619C46.0262 98.3458 39.0388 101.774 31.0115 102.858C23.3102 103.899 15.8082 103.295 9.06962 98.9028C3.71749 95.4142 0.888371 90.4063 0.15491 84.0531C-1.40315 70.5575 8.9962 56.6571 22.1408 54.6558C23.9577 54.3792 25.7954 54.3283 27.6068 54.6954C28.6907 54.9151 29.7265 55.3071 29.8657 56.6503C30.0038 57.9829 28.9675 58.4095 28.0428 58.8165C24.9227 60.1897 21.8769 61.6607 19.2884 63.9511C14.4302 68.25 11.353 73.5911 10.8791 80.0385C10.2869 88.0937 14.7307 95.0382 23.7896 96.3301C37.0211 98.2172 48.7399 88.5117 52.0344 76.0546C54.6155 66.2951 52.2383 57.506 46.9413 49.2739C44.9276 46.1443 42.7405 43.1257 40.742 39.9868C30.6686 24.1651 39.4966 7.73922 54.0384 2.02152C59.6053 -0.167338 65.3148 -0.705939 71.1345 1.03662C77.1935 2.85084 81.2386 8.37162 81.4466 14.6831C81.6258 20.1213 80.0943 24.9084 76.649 29.0593C74.2486 31.9514 71.3248 33.9376 67.3125 33.6482C66.1435 33.5639 65.0899 33.1821 64.1656 32.4986C63.0854 31.6998 63.0969 30.8455 64.3089 30.2791C70.4245 27.4212 73.3097 22.2465 73.8979 15.9153C74.5437 8.96416 70.3628 4.61763 63.2219 5.27683C54.5985 6.07285 48.2245 13.9675 47.1791 21.0775C46.5567 25.3107 47.4622 29.3357 49.4111 33.1303C51.5887 37.3703 54.5626 41.1013 57.0855 45.1211C60.2736 50.2009 62.7027 55.5951 63.4984 61.5708C64.7088 70.6601 62.5756 79.0006 57.4259 86.5742C55.9034 88.8132 54.1345 90.8443 52.0642 92.7619Z" fill="#FB0408"/>
<path d="M219.742 86.0747C222.536 84.4741 225.389 84.0064 228.387 84.8571C234.066 86.4688 235.081 94.2131 232.599 98.0594C229.318 103.145 224.31 104.103 219.193 102.085C216.77 101.129 215.721 98.8485 215.415 96.4232C214.89 92.2628 215.899 88.6065 219.742 86.0747ZM221.998 95.3982C222.298 95.7026 222.557 96.0669 222.904 96.3006C224.148 97.1388 225.668 96.8752 226.63 95.7006C227.621 94.4896 227.53 92.6685 226.423 91.5774C225.346 90.5164 223.821 90.4491 222.63 91.4726C221.439 92.4959 221.459 93.8061 221.998 95.3982Z" fill="#FB0408"/>
<path d="M259.603 95.4007C257.761 101.637 251.848 104.649 245.415 102.192C242.697 101.155 240.931 97.1763 241.275 93.7441C242.02 86.309 248.529 83.6883 253.858 84.6548C257.601 85.3335 260.329 89.5665 259.841 93.992C259.793 94.4194 259.693 94.8408 259.603 95.4007ZM248.568 96.117C248.798 96.2565 249.017 96.4212 249.26 96.5315C250.585 97.1325 252.129 96.6364 252.874 95.3831C253.594 94.172 253.284 92.3343 252.201 91.3921C251.143 90.4713 249.69 90.5476 248.536 91.5845C247.319 92.6785 247.271 94.1743 248.568 96.117Z" fill="#FB0408"/>
</svg>
