<svg width="28" height="28" viewBox="0 0 28 28" fill="none" xmlns="http://www.w3.org/2000/svg">
<path d="M14 2.625C7.71805 2.625 2.625 7.71805 2.625 14C2.625 20.282 7.71805 25.375 14 25.375C20.282 25.375 25.375 20.282 25.375 14C25.375 7.71805 20.282 2.625 14 2.625ZM19.8685 16.806C19.7044 16.97 19.482 17.0621 19.25 17.0621C19.018 17.0621 18.7956 16.97 18.6315 16.806L14 12.1751L9.36852 16.806C9.20309 16.9632 8.98281 17.0495 8.75464 17.0466C8.52647 17.0437 8.30847 16.9517 8.14712 16.7904C7.98577 16.629 7.89383 16.411 7.89091 16.1829C7.88799 15.9547 7.97432 15.7344 8.13148 15.569L13.3815 10.319C13.5456 10.155 13.768 10.0629 14 10.0629C14.232 10.0629 14.4544 10.155 14.6185 10.319L19.8685 15.569C20.0325 15.7331 20.1246 15.9555 20.1246 16.1875C20.1246 16.4195 20.0325 16.6419 19.8685 16.806Z" fill="#21272A"/>
</svg>
