<svg width="16" height="29" viewBox="0 0 16 29" fill="none" xmlns="http://www.w3.org/2000/svg">
<path fill-rule="evenodd" clip-rule="evenodd" d="M15.4922 12.7767C15.0726 12.9458 14.5916 12.752 14.4178 12.3438L14.1845 11.7958L13.9196 11.3007L13.6113 10.8299L13.262 10.387L12.8743 9.97549L12.4513 9.59837L11.996 9.25855L11.5121 8.95863L11.0031 8.70087L10.473 8.48726L9.92577 8.3194L9.36558 8.19858L8.79669 8.12572L8.22343 8.10137L7.65018 8.12572L7.08129 8.19858L6.52109 8.3194L5.97385 8.48726L5.44373 8.70087L4.93477 8.95862L4.45082 9.25855L3.99561 9.59836L3.57255 9.97549L3.1849 10.387L2.8356 10.8299L2.52729 11.3007L2.26234 11.7958L2.04276 12.3115L1.87021 12.8439L1.74602 13.3889L1.67113 13.9423L1.6461 14.5L1.67113 15.0577L1.74602 15.6111L1.87021 16.1561L2.04276 16.6885L2.26234 17.2042L2.52729 17.6993L2.83559 18.1701L3.1849 18.613L3.57255 19.0245L3.9956 19.4016L4.45083 19.7415L4.93477 20.0414L5.44372 20.2991L5.97386 20.5127L6.52109 20.6806L7.08128 20.8014L7.65018 20.8743L8.22343 20.8986L8.79668 20.8743L9.40117 20.7969C9.85141 20.7392 10.2645 21.0475 10.3237 21.4855C10.383 21.9235 10.0661 22.3254 9.61582 22.383L8.94015 22.4696L8.22343 22.5L7.50671 22.4696L6.79545 22.3785L6.09505 22.2274L5.41085 22.0175L4.74806 21.7505L4.11172 21.4282L3.50667 21.0532L2.93751 20.6284L2.40859 20.1569L1.92392 19.6423L1.48719 19.0886L1.10173 18.5L0.770472 17.8809L0.495934 17.2362L0.280206 16.5706L0.124932 15.8892L0.0312935 15.1972L6.03983e-07 14.5L0.0312935 13.8028L0.124932 13.1108L0.280206 12.4294L0.495934 11.7638L0.770472 11.1191L1.10173 10.5L1.48719 9.91139L1.92392 9.3577L2.40859 8.84315L2.93751 8.37164L3.50667 7.94678L4.11172 7.5718L4.74806 7.24954L5.41085 6.98246L6.09505 6.77259L6.79545 6.62154L7.50671 6.53044L8.22343 6.5L8.94015 6.53044L9.65142 6.62154L10.3518 6.77259L11.036 6.98246L11.6988 7.24954L12.3351 7.5718L12.9402 7.94678L13.5094 8.37164L14.0383 8.84315L14.5229 9.3577L14.9597 9.91139L15.3451 10.5L15.6764 11.1191L15.9372 11.7316C16.111 12.1397 15.9117 12.6077 15.4922 12.7767Z" fill="#999999"/>
</svg>
